<svg data-name="Layer 1" xmlns="http://www.w3.org/2000/svg" viewBox="0 0 1080 1080"><circle cx="540" cy="540" r="540"/><path d="M367.56 234.07h-1.07c-10.61.19-18.02 5.14-24.04 16.07-25.58 46.47-43.83 94.93-54.25 144.03-14.07 66.28-12.12 125.33 5.8 175.52 8.42 23.55 21.12 44.2 37.75 61.37 16.56 16.88 36.34 30.12 58.77 39.32 22.39 9.23 48.25 13.91 76.87 13.91 35.3 0 70.84-11.06 105.65-32.88 33.46-20.92 63.39-49.58 88.97-85.18l5.47-7.61 3.28 8.78c14.32 38.38 35.69 68.51 63.49 89.55l.77.63c14.49 10.86 30.96-.06 42.23-11.15 13.82-13.61 23.82-31.98 23.82-37.72 0-.11 0-.22-.02-.32-.01-.09-.03-.15-.04-.2-6.98-3.98-13.73-8.01-19.45-13.36-17.19-16.08-30.21-35.63-38.69-58.13-8.34-22.21-13.94-45.03-16.63-67.83-2.69-22.62-3.27-41.42-1.73-55.87l11.99-134.5 1.42-19.43c.04-.56-.26-1.12-.76-1.4-3.11-1.7-6.76-3.18-10.84-4.39-16.21-4.79-34.75-5.1-50.88-.88-9.3 2.44-15.51 5.71-19.53 10.29-.73.84-1.36 1.71-1.84 2.6-.18.32-.31.64-.4.98l-14.45 147.09c-3.92 33.88-12.45 63.57-25.37 88.32-13.04 24.98-28.32 45.83-45.41 61.94-17.04 16.07-34.87 28.22-53 36.09-18.07 7.77-34.23 11.7-48.04 11.7-33.05 0-59.05-10.52-77.28-31.28-20.98-24.15-30.82-59.41-29.25-104.82 1.41-41.15 11.97-82.25 20.57-109.47 5.2-16.45 11.83-32.72 20.27-49.75l.08-.25.22-.35c6.81-13.7 14.84-28.01 25.24-45.02l.16-.25c3.78-6.16 7.84-12.64 13.13-20.97-4.98-1.11-11.2-2.78-17.79-4.54l-.13-.04c-17.71-4.74-39.66-10.62-55.06-10.62z" fill="#fff"/><path d="M787.27 840.58c-56.03-.63-128.31-1.27-208.7-1.27-91.93 0-199.83 2.96-279.56 6.59-6.08.28-11.65-2.99-13.78-8.06-4.21-10.03-6.31-26.43-6.31-42.83 0-14.92 1.95-29.85 5.86-39.07 2.15-5.08 7.78-8.6 13.84-8.01 166.91 16.18 478.9 12.9 488.64 12.27 8.93 4.43 13.8 21.52 13.8 38.6 0 18.35-4.87 36.07-13.8 41.77z" fill="#ed1d7e"/></svg>